<svg width="250" height="266" viewBox="0 0 250 266" fill="none" xmlns="http://www.w3.org/2000/svg">
<path d="M125 0.418119C159.518 0.418202 187.5 28.4005 187.5 62.9181C187.5 65.4371 187.349 67.9214 187.06 70.3625C187.206 70.3614 187.353 70.3605 187.5 70.3605C222.018 70.3606 250 98.3428 250 132.861C250 167.378 222.018 195.36 187.5 195.361C187.353 195.361 187.206 195.359 187.06 195.358C187.349 197.799 187.5 200.283 187.5 202.802C187.5 237.32 159.518 265.302 125 265.302C90.4824 265.302 62.5002 237.32 62.5002 202.802C62.5002 200.283 62.6499 197.799 62.9396 195.358C62.7932 195.359 62.6468 195.361 62.5002 195.361C27.9824 195.361 0.000276302 167.378 0.000152588 132.861C0.000152588 98.3427 27.9824 70.3605 62.5002 70.3605C62.6468 70.3605 62.7932 70.3614 62.9396 70.3625C62.6499 67.9215 62.5002 65.4371 62.5002 62.9181C62.5004 28.4005 90.4825 0.418119 125 0.418119ZM125 125.418C124.853 125.418 124.706 125.416 124.56 125.415C124.85 127.857 125 130.341 125 132.861C125 135.379 124.849 137.863 124.56 140.304C124.706 140.303 124.853 140.302 125 140.302C125.147 140.302 125.293 140.303 125.44 140.304C125.15 137.863 125 135.379 125 132.861C125 130.341 125.15 127.857 125.44 125.415C125.293 125.416 125.147 125.418 125 125.418Z" fill="#FAB4BC"/>
<path d="M125 70.4995C125 105.017 97.0177 132.999 62.4998 133C97.0176 133 125 160.982 125 195.5C159.518 195.499 187.5 167.517 187.5 133C187.5 98.4821 159.518 70.4997 125 70.4995Z" fill="#E5E995"/>
</svg>
