<svg width="132" height="55" viewBox="0 0 132 55" fill="none" xmlns="http://www.w3.org/2000/svg">
<g clip-path="url(#clip0_1_2)">
<path fill-rule="evenodd" clip-rule="evenodd" d="M105.673 0.035L125.23 53.373L132 53.375V53.758H110.452V53.375H116.796L110.365 35.835H97.311V35.842L97.381 36.046C97.902 37.594 98.161 39.216 98.145 40.849V47.424C98.145 50.806 99.639 54.234 102.492 54.234C104.167 54.234 105.504 53.644 107.096 52.188L107.323 52.399C105.594 54.224 103.5 55 100.36 55C97.99 55 95.962 54.43 94.33 53.307L94.021 53.085C91.873 51.461 90.479 48.807 89.879 45.195L89.783 44.612L89.683 43.73L89.673 43.578L86.074 53.37H91.181V53.754H80.496V53.37H85.658L89.609 42.617V42.594C89.5667 41.9595 89.5416 41.3239 89.534 40.688V35.995C89.534 30.225 85.244 26.915 77.763 26.915H70.41V53.373H76.781V53.756H51.881V53.373H58.226L51.795 35.833H33.948L27.577 53.179L27.843 53.135C36.209 51.693 40.056 45.308 40.108 38.585H40.496V53.756H0L30.06 2.185H17.972C7.954 2.185 3.42 9.922 3.35 17.635H2.963V1.8H39.451L39.229 2.185L9.396 53.373H25.091C25.481 53.373 25.869 53.354 26.26 53.323C26.52 53.305 26.782 53.279 27.048 53.246L27.143 53.236L46.703 0H47.09L47.103 0.035L62.472 41.951V2.185H56.144V1.795H77.922C88.389 1.795 95.696 7.167 95.696 14.863C95.696 20.475 90.691 25.133 83.246 26.458L81.879 26.632L83.256 26.772C87.771 27.289 91.356 28.678 93.897 30.899L93.914 30.915L105.273 0H105.659L105.673 0.035ZM97.121 35.355L97.159 35.449H110.22L101.447 11.521L94.226 31.191L94.265 31.228L94.632 31.592C95.6944 32.6755 96.5393 33.9535 97.121 35.355ZM70.415 26.53V2.185H76.026C83.522 2.185 87.48 6.599 87.48 14.945C87.48 23.822 85.208 26.53 77.763 26.53H70.415ZM42.882 11.521L34.09 35.45H51.655L42.882 11.521Z" fill="#F4F4F4"/>
</g>
<defs>
<clipPath id="clip0_1_2">
<rect width="132" height="55" fill="white"/>
</clipPath>
</defs>
</svg>
